<svg xmlns="http://www.w3.org/2000/svg" xmlns:xlink="http://www.w3.org/1999/xlink" xmlns:lucid="lucid" width="1760" height="1360"><g transform="translate(0 0)" lucid:page-tab-id="0_0"><path d="M0 0h1760v1360H0z" fill="#fff"/><path d="M453.15 56.43a6 6 0 0 1 6-6h840.75a6 6 0 0 1 6 6v64.3a6 6 0 0 1-6 6H459.15a6 6 0 0 1-6-6z" stroke="#000" stroke-opacity="0" stroke-width="2" fill="#fff" fill-opacity="0"/><use xlink:href="#a" transform="matrix(1,0,0,1,457.1465527853429,54.43094531161555) translate(311.1241975308642 38.75152777777778)"/><use xlink:href="#b" transform="matrix(1,0,0,1,457.1465527853429,54.43094531161555) translate(373.6204938271605 38.75152777777778)"/><use xlink:href="#c" transform="matrix(1,0,0,1,457.1465527853429,54.43094531161555) translate(389.57234567901236 38.75152777777778)"/><use xlink:href="#d" transform="matrix(1,0,0,1,457.1465527853429,54.43094531161555) translate(489.7266666666667 38.75152777777778)"/><path d="M628.63 124.24h505.86M628.66 124.24h-1.02M1134.47 124.24h1.02" stroke="#224c72" stroke-width="2" fill="none"/><path d="M440 103.02a6 6 0 0 1 6-6h841.7a6 6 0 0 1 6 6v6.85a6 6 0 0 1-6 6H446a6 6 0 0 1-6-6z" stroke="#000" stroke-opacity="0" stroke-width="2" fill="#fff" fill-opacity="0"/><use xlink:href="#e" transform="matrix(1,0,0,1,444,101.02314752458881) translate(375.0036728395062 14.917037037037037)"/><use xlink:href="#f" transform="matrix(1,0,0,1,444,101.02314752458881) translate(431.8549074074074 14.917037037037037)"/><path d="M861.5 448h399" stroke="#224c72" stroke-width="2" fill="none"/><path d="M861.5 458v-20M841.5 448h20" stroke="#224c72" stroke-width="2" fill="#fff"/><path d="M1262.3 464.88l-6.02-21.54 20.84 8.12" stroke="#224c72" stroke-width="2" fill="#fff" fill-opacity="0"/><path d="M1269.7 458.17l-13.42-14.83M1263.7 436.63l-14.83 13.42" stroke="#224c72" stroke-width="2" fill="#fff"/><path d="M400 366a6 6 0 0 1 6-6h428a6 6 0 0 1 6 6v252a6 6 0 0 1-6 6H406a6 6 0 0 1-6-6z" fill="#f5fbff"/><path d="M400 400v-34a6 6 0 0 1 6-6h428a6 6 0 0 1 6 6v34" fill="#cfe4ff"/><path d="M400 366a6 6 0 0 1 6-6h428a6 6 0 0 1 6 6v252a6 6 0 0 1-6 6H406a6 6 0 0 1-6-6zM400 400h440M620 400v224" stroke="#4881b3" stroke-width="3" fill="none"/><use xlink:href="#g" transform="matrix(1,0,0,1,410,360) translate(0 23.6)"/><use xlink:href="#h" transform="matrix(1,0,0,1,405,402.5) translate(0 17.1)"/><use xlink:href="#i" transform="matrix(1,0,0,1,405,402.5) translate(54.95 17.1)"/><use xlink:href="#j" transform="matrix(1,0,0,1,625,402.5) translate(0 17.1)"/><use xlink:href="#k" transform="matrix(1,0,0,1,405,434.5) translate(0 17.1)"/><use xlink:href="#l" transform="matrix(1,0,0,1,625,434.5) translate(0 17.1)"/><use xlink:href="#m" transform="matrix(1,0,0,1,405,466.5) translate(0 17.1)"/><use xlink:href="#l" transform="matrix(1,0,0,1,625,466.5) translate(0 17.1)"/><use xlink:href="#n" transform="matrix(1,0,0,1,405,498.5) translate(0 17.1)"/><use xlink:href="#l" transform="matrix(1,0,0,1,625,498.5) translate(0 17.1)"/><use xlink:href="#o" transform="matrix(1,0,0,1,405,530.5) translate(0 17.1)"/><use xlink:href="#p" transform="matrix(1,0,0,1,625,530.5) translate(0 17.1)"/><use xlink:href="#q" transform="matrix(1,0,0,1,405,562.5) translate(0 17.1)"/><use xlink:href="#r" transform="matrix(1,0,0,1,625,562.5) translate(0 17.1)"/><use xlink:href="#s" transform="matrix(1,0,0,1,405,594.5) translate(0 17.1)"/><use xlink:href="#t" transform="matrix(1,0,0,1,625,594.5) translate(0 17.1)"/><path d="M1040 466a6 6 0 0 1 6-6h448a6 6 0 0 1 6 6v220a6 6 0 0 1-6 6h-448a6 6 0 0 1-6-6z" fill="#f5fbff"/><path d="M1040 500v-34a6 6 0 0 1 6-6h448a6 6 0 0 1 6 6v34" fill="#cfe4ff"/><path d="M1040 466a6 6 0 0 1 6-6h448a6 6 0 0 1 6 6v220a6 6 0 0 1-6 6h-448a6 6 0 0 1-6-6zM1040 500h460M1270 500v192" stroke="#4881b3" stroke-width="3" fill="none"/><use xlink:href="#u" transform="matrix(1,0,0,1,1050,460) translate(0 23.6)"/><use xlink:href="#v" transform="matrix(1,0,0,1,1045,502.5) translate(0 17.1)"/><use xlink:href="#i" transform="matrix(1,0,0,1,1045,502.5) translate(73.9 17.1)"/><use xlink:href="#j" transform="matrix(1,0,0,1,1275,502.5) translate(0 17.1)"/><use xlink:href="#w" transform="matrix(1,0,0,1,1045,534.5) translate(0 17.1)"/><use xlink:href="#l" transform="matrix(1,0,0,1,1275,534.5) translate(0 17.1)"/><use xlink:href="#x" transform="matrix(1,0,0,1,1045,566.5) translate(0 17.1)"/><use xlink:href="#p" transform="matrix(1,0,0,1,1275,566.5) translate(0 17.1)"/><use xlink:href="#y" transform="matrix(1,0,0,1,1045,598.5) translate(0 17.1)"/><use xlink:href="#l" transform="matrix(1,0,0,1,1275,598.5) translate(0 17.1)"/><use xlink:href="#z" transform="matrix(1,0,0,1,1045,630.5) translate(0 17.1)"/><use xlink:href="#g" transform="matrix(1,0,0,1,1275,630.5) translate(0 17.1)"/><use xlink:href="#s" transform="matrix(1,0,0,1,1045,662.5) translate(0 17.1)"/><use xlink:href="#t" transform="matrix(1,0,0,1,1275,662.5) translate(0 17.1)"/><path d="M280 806a6 6 0 0 1 6-6h268a6 6 0 0 1 6 6v188a6 6 0 0 1-6 6H286a6 6 0 0 1-6-6z" fill="#f5fbff"/><path d="M280 840v-34a6 6 0 0 1 6-6h268a6 6 0 0 1 6 6v34" fill="#cfe4ff"/><path d="M280 806a6 6 0 0 1 6-6h268a6 6 0 0 1 6 6v188a6 6 0 0 1-6 6H286a6 6 0 0 1-6-6zM280 840h280M436.02 840v160" stroke="#4881b3" stroke-width="3" fill="none"/><use xlink:href="#A" transform="matrix(1,0,0,1,290,800) translate(0 23.6)"/><use xlink:href="#B" transform="matrix(1,0,0,1,285,842.5) translate(0 17.1)"/><use xlink:href="#i" transform="matrix(1,0,0,1,285,842.5) translate(108.8 17.1)"/><use xlink:href="#j" transform="matrix(1,0,0,1,441.0177160786992,842.5) translate(0 17.1)"/><use xlink:href="#v" transform="matrix(1,0,0,1,285,874.5) translate(0 17.1)"/><use xlink:href="#C" transform="matrix(1,0,0,1,285,874.5) translate(73.9 17.1)"/><use xlink:href="#j" transform="matrix(1,0,0,1,441.0177160786992,874.5) translate(0 17.1)"/><use xlink:href="#z" transform="matrix(1,0,0,1,285,906.5) translate(0 17.1)"/><use xlink:href="#g" transform="matrix(1,0,0,1,441.0177160786992,906.5) translate(0 17.1)"/><use xlink:href="#D" transform="matrix(1,0,0,1,285,938.5) translate(0 17.1)"/><use xlink:href="#E" transform="matrix(1,0,0,1,441.0177160786992,938.5) translate(0 17.1)"/><use xlink:href="#F" transform="matrix(1,0,0,1,285,970.5) translate(0 17.1)"/><use xlink:href="#G" transform="matrix(1,0,0,1,441.0177160786992,970.5) translate(0 17.1)"/><path d="M80 92a12 12 0 0 1 12-12h216a12 12 0 0 1 12 12v156a12 12 0 0 1-12 12H92a12 12 0 0 1-12-12z" stroke="#4881b3" stroke-width="3" fill="#f5fbff"/><path d="M155.45 171.62c0 8.93-7.24 16.16-16.17 16.16-8.93 0-16.17-7.23-16.17-16.16s7.25-16.17 16.18-16.17 16.17 7.24 16.17 16.17z" stroke="#000" stroke-opacity=".25" fill="#a9afb8"/><path d="M155.45 214.73c0 8.93-7.24 16.17-16.17 16.17-8.93 0-16.17-7.24-16.17-16.17 0-8.93 7.25-16.17 16.18-16.17s16.17 7.24 16.17 16.17z" stroke="#000" stroke-opacity=".25" fill="#cfe4ff"/><use xlink:href="#H" transform="matrix(1,0,0,1,123.11377245508982,112.33532934131736) translate(17.049999999999997 14.4)"/><use xlink:href="#I" transform="matrix(1,0,0,1,123.11377245508982,112.33532934131736) translate(36.525 38.160000000000004)"/><use xlink:href="#J" transform="matrix(1,0,0,1,171.61676646706587,155.4491017964072) translate(0 19.3)"/><use xlink:href="#K" transform="matrix(1,0,0,1,171.61676646706587,155.4491017964072) translate(52.81111111111111 19.3)"/><use xlink:href="#L" transform="matrix(1,0,0,1,171.61676646706587,198.56287425149702) translate(0 19.3)"/><use xlink:href="#K" transform="matrix(1,0,0,1,171.61676646706587,198.56287425149702) translate(63.73888888888889 19.3)"/><path d="M880 789.8a6 6 0 0 1 6-6h268a6 6 0 0 1 6 6v156a6 6 0 0 1-6 6H886a6 6 0 0 1-6-6z" fill="#f5fbff"/><path d="M880 823.8v-34a6 6 0 0 1 6-6h268a6 6 0 0 1 6 6v34" fill="#cfe4ff"/><path d="M880 789.8a6 6 0 0 1 6-6h268a6 6 0 0 1 6 6v156a6 6 0 0 1-6 6H886a6 6 0 0 1-6-6zM880 823.8h280M1018.28 823.8v128" stroke="#4881b3" stroke-width="3" fill="none"/><use xlink:href="#E" transform="matrix(1,0,0,1,890,783.7857196605847) translate(0 23.6)"/><use xlink:href="#M" transform="matrix(1,0,0,1,885,826.2857196605847) translate(0 17.1)"/><use xlink:href="#N" transform="matrix(1,0,0,1,885,826.2857196605847) translate(59.85 17.1)"/><use xlink:href="#j" transform="matrix(1,0,0,1,1023.2798345758615,826.2857196605847) translate(0 17.1)"/><use xlink:href="#O" transform="matrix(1,0,0,1,885,858.2857196605847) translate(0 17.1)"/><use xlink:href="#P" transform="matrix(1,0,0,1,1023.2798345758615,858.2857196605847) translate(0 17.1)"/><use xlink:href="#Q" transform="matrix(1,0,0,1,885,890.2857196605847) translate(0 17.1)"/><use xlink:href="#P" transform="matrix(1,0,0,1,1023.2798345758615,890.2857196605847) translate(0 17.1)"/><use xlink:href="#R" transform="matrix(1,0,0,1,885,922.2857196605847) translate(0 17.1)"/><use xlink:href="#j" transform="matrix(1,0,0,1,1023.2798345758615,922.2857196605847) translate(0 17.1)"/><path d="M1000 1134.28a6 6 0 0 1 6-6h401.15a6 6 0 0 1 6 6v124a6 6 0 0 1-6 6H1006a6 6 0 0 1-6-6z" fill="#f5fbff"/><path d="M1000 1168.28v-34a6 6 0 0 1 6-6h401.15a6 6 0 0 1 6 6v34" fill="#cfe4ff"/><path d="M1000 1134.28a6 6 0 0 1 6-6h401.15a6 6 0 0 1 6 6v124a6 6 0 0 1-6 6H1006a6 6 0 0 1-6-6zM1000 1168.28h413.15M1138.28 1168.28v96" stroke="#4881b3" stroke-width="3" fill="none"/><use xlink:href="#G" transform="matrix(1,0,0,1,1010,1128.2819569087783) translate(0 23.6)"/><use xlink:href="#w" transform="matrix(1,0,0,1,1005,1170.7819569087783) translate(0 17.1)"/><use xlink:href="#l" transform="matrix(1,0,0,1,1143.2798345758615,1170.7819569087783) translate(0 17.1)"/><use xlink:href="#S" transform="matrix(1,0,0,1,1005,1202.7819569087783) translate(0 17.1)"/><use xlink:href="#l" transform="matrix(1,0,0,1,1143.2798345758615,1202.7819569087783) translate(0 17.1)"/><use xlink:href="#T" transform="matrix(1,0,0,1,1005,1234.7819569087783) translate(0 17.1)"/><use xlink:href="#U" transform="matrix(1,0,0,1,1143.2798345758615,1234.7819569087783) translate(0 17.1)"/><path d="M420 1021.5v36.64a6 6 0 0 0 6 6h764.46a6 6 0 0 1 6 6v36.64" stroke="#224c72" stroke-width="2" fill="none"/><path d="M410 1021.5h20M420 1001.5v20M1206.46 1106.78h-20M1196.46 1126.78v-20" stroke="#224c72" stroke-width="2" fill="#fff"/><path d="M581.5 888h277" stroke="#224c72" stroke-width="2" fill="none"/><path d="M581.5 898v-20M561.5 888h20M858.5 878v20M878.5 888h-20" stroke="#224c72" stroke-width="2" fill="#fff"/><path d="M530.15 778.5V752a6 6 0 0 1 6-6h510.04a6 6 0 0 0 6-6v-26.5" stroke="#224c72" stroke-width="2" fill="none"/><path d="M520.15 798.05l10-20 10 20" stroke="#224c72" stroke-width="2" fill="#fff" fill-opacity="0"/><path d="M530.15 798.05v-20M540.15 778.05h-20M1042.2 713.5h20M1052.2 693.5v20" stroke="#224c72" stroke-width="2" fill="#fff"/><path d="M378.5 480h-134a6 6 0 0 0-6 6v328a6 6 0 0 0 6 6h15.18" stroke="#224c72" stroke-width="2" fill="none"/><path d="M378.5 470v20M398.5 480h-20" stroke="#224c72" stroke-width="2" fill="#fff"/><path d="M278.05 830l-20-10 20-10" stroke="#224c72" stroke-width="2" fill="#fff" fill-opacity="0"/><path d="M278.05 820h-20" stroke="#224c72" stroke-width="2" fill="#fff"/><defs><path fill="#1d262b" d="M24 0v-248h195v40H76v63h132v40H76v65h150V0H24" id="V"/><path fill="#1d262b" d="M240-174c0 40-23 61-54 70L253 0h-59l-57-94H76V0H24v-248c93 4 217-23 216 74zM76-134c48-2 112 12 112-38 0-48-66-32-112-35v73" id="W"/><path fill="#1d262b" d="M24-248c120-7 223 5 221 122C244-46 201 0 124 0H24v-248zM76-40c74 7 117-18 117-86 0-67-45-88-117-82v168" id="X"/><g id="a"><use transform="matrix(0.0728395061728395,0,0,0.0728395061728395,0,0)" xlink:href="#V"/><use transform="matrix(0.0728395061728395,0,0,0.0728395061728395,17.48148148148148,0)" xlink:href="#W"/><use transform="matrix(0.0728395061728395,0,0,0.0728395061728395,36.34691358024691,0)" xlink:href="#X"/></g><path fill="#1d262b" d="M14-72v-43h91v43H14" id="Y"/><use transform="matrix(0.0728395061728395,0,0,0.0728395061728395,0,0)" xlink:href="#Y" id="b"/><path fill="#1d262b" d="M199 0l-22-63H83L61 0H9l90-248h61L250 0h-51zm-33-102l-36-108c-10 38-24 72-36 108h72" id="Z"/><path fill="#1d262b" d="M135-194c87-1 58 113 63 194h-50c-7-57 23-157-34-157-59 0-34 97-39 157H25l-1-190h47c2 12-1 28 3 38 12-26 28-41 61-42" id="aa"/><path fill="#1d262b" d="M88-194c31-1 46 15 58 34l-1-101h50l1 261h-48c-2-10 0-23-3-31C134-8 116 4 84 4 32 4 16-41 15-95c0-56 19-97 73-99zm17 164c33 0 40-30 41-66 1-37-9-64-41-64s-38 30-39 65c0 43 13 65 39 65" id="ab"/><path fill="#1d262b" d="M135-150c-39-12-60 13-60 57V0H25l-1-190h47c2 13-1 29 3 40 6-28 27-53 61-41v41" id="ac"/><path fill="#1d262b" d="M110-194c64 0 96 36 96 99 0 64-35 99-97 99-61 0-95-36-95-99 0-62 34-99 96-99zm-1 164c35 0 45-28 45-65 0-40-10-65-43-65-34 0-45 26-45 65 0 36 10 65 43 65" id="ad"/><path fill="#1d262b" d="M25-224v-37h50v37H25zM25 0v-190h50V0H25" id="ae"/><g id="c"><use transform="matrix(0.0728395061728395,0,0,0.0728395061728395,0,0)" xlink:href="#Z"/><use transform="matrix(0.0728395061728395,0,0,0.0728395061728395,18.86543209876543,0)" xlink:href="#aa"/><use transform="matrix(0.0728395061728395,0,0,0.0728395061728395,34.81728395061728,0)" xlink:href="#ab"/><use transform="matrix(0.0728395061728395,0,0,0.0728395061728395,50.76913580246913,0)" xlink:href="#ac"/><use transform="matrix(0.0728395061728395,0,0,0.0728395061728395,60.966666666666654,0)" xlink:href="#ad"/><use transform="matrix(0.0728395061728395,0,0,0.0728395061728395,76.91851851851851,0)" xlink:href="#ae"/><use transform="matrix(0.0728395061728395,0,0,0.0728395061728395,84.20246913580247,0)" xlink:href="#ab"/></g><path fill="#1d262b" d="M135-194c53 0 70 44 70 98 0 56-19 98-73 100-31 1-45-17-59-34 3 33 2 69 2 105H25l-1-265h48c2 10 0 23 3 31 11-24 29-35 60-35zM114-30c33 0 39-31 40-66 0-38-9-64-40-64-56 0-55 130 0 130" id="af"/><g id="d"><use transform="matrix(0.0728395061728395,0,0,0.0728395061728395,0,0)" xlink:href="#Z"/><use transform="matrix(0.0728395061728395,0,0,0.0728395061728395,18.86543209876543,0)" xlink:href="#af"/><use transform="matrix(0.0728395061728395,0,0,0.0728395061728395,34.81728395061728,0)" xlink:href="#af"/></g><path fill="#1d262b" d="M127-220V0H93v-220H8v-28h204v28h-85" id="ag"/><path fill="#1d262b" d="M100-194c63 0 86 42 84 106H49c0 40 14 67 53 68 26 1 43-12 49-29l28 8c-11 28-37 45-77 45C44 4 14-33 15-96c1-61 26-98 85-98zm52 81c6-60-76-77-97-28-3 7-6 17-6 28h103" id="ah"/><path fill="#1d262b" d="M108 0H70L1-190h34L89-25l56-165h34" id="ai"/><path fill="#1d262b" d="M106-169C34-169 62-67 57 0H25v-261h32l-1 103c12-21 28-36 61-36 89 0 53 116 60 194h-32v-121c2-32-8-49-39-48" id="aj"/><path fill="#1d262b" d="M24-231v-30h32v30H24zM24 0v-190h32V0H24" id="ak"/><path fill="#1d262b" d="M85-194c31 0 48 13 60 33l-1-100h32l1 261h-30c-2-10 0-23-3-31C134-8 116 4 85 4 32 4 16-35 15-94c0-66 23-100 70-100zm9 24c-40 0-46 34-46 75 0 40 6 74 45 74 42 0 51-32 51-76 0-42-9-74-50-73" id="al"/><g id="e"><use transform="matrix(0.04248971193415638,0,0,0.04248971193415638,0,0)" xlink:href="#ag"/><use transform="matrix(0.04248971193415638,0,0,0.04248971193415638,7.605658436213991,0)" xlink:href="#ah"/><use transform="matrix(0.04248971193415638,0,0,0.04248971193415638,16.103600823045266,0)" xlink:href="#ai"/><use transform="matrix(0.04248971193415638,0,0,0.04248971193415638,23.751748971193415,0)" xlink:href="#aj"/><use transform="matrix(0.04248971193415638,0,0,0.04248971193415638,32.24969135802469,0)" xlink:href="#ak"/><use transform="matrix(0.04248971193415638,0,0,0.04248971193415638,35.60637860082304,0)" xlink:href="#al"/><use transform="matrix(0.04248971193415638,0,0,0.04248971193415638,44.10432098765432,0)" xlink:href="#ah"/></g><path fill="#1d262b" d="M212-179c-10-28-35-45-73-45-59 0-87 40-87 99 0 60 29 101 89 101 43 0 62-24 78-52l27 14C228-24 195 4 139 4 59 4 22-46 18-125c-6-104 99-153 187-111 19 9 31 26 39 46" id="am"/><path fill="#1d262b" d="M141-36C126-15 110 5 73 4 37 3 15-17 15-53c-1-64 63-63 125-63 3-35-9-54-41-54-24 1-41 7-42 31l-33-3c5-37 33-52 76-52 45 0 72 20 72 64v82c-1 20 7 32 28 27v20c-31 9-61-2-59-35zM48-53c0 20 12 33 32 33 41-3 63-29 60-74-43 2-92-5-92 41" id="an"/><path fill="#1d262b" d="M210-169c-67 3-38 105-44 169h-31v-121c0-29-5-50-35-48C34-165 62-65 56 0H25l-1-190h30c1 10-1 24 2 32 10-44 99-50 107 0 11-21 27-35 58-36 85-2 47 119 55 194h-31v-121c0-29-5-49-35-48" id="ao"/><path fill="#1d262b" d="M84 4C-5 8 30-112 23-190h32v120c0 31 7 50 39 49 72-2 45-101 50-169h31l1 190h-30c-1-10 1-25-2-33-11 22-28 36-60 37" id="ap"/><path fill="#1d262b" d="M114-163C36-179 61-72 57 0H25l-1-190h30c1 12-1 29 2 39 6-27 23-49 58-41v29" id="aq"/><g id="f"><use transform="matrix(0.04248971193415638,0,0,0.04248971193415638,0,0)" xlink:href="#am"/><use transform="matrix(0.04248971193415638,0,0,0.04248971193415638,11.004835390946502,0)" xlink:href="#an"/><use transform="matrix(0.04248971193415638,0,0,0.04248971193415638,19.502777777777776,0)" xlink:href="#ao"/><use transform="matrix(0.04248971193415638,0,0,0.04248971193415638,32.20720164609053,0)" xlink:href="#ap"/><use transform="matrix(0.04248971193415638,0,0,0.04248971193415638,40.70514403292181,0)" xlink:href="#aq"/></g><path fill="#1d262b" d="M62-99C39-31 123 0 170-40s38-139 58-208h34C234-144 253 4 115 4 49 4 18-43 31-112l26-136h34" id="ar"/><path fill="#1d262b" d="M55-144c13 50 104 24 104 88C159 21 15 23 1-39l26-10c6 40 102 42 102-4-13-50-104-23-104-87 0-71 143-71 148-8l-29 4c-5-35-85-37-89 0" id="as"/><path fill="#1d262b" d="M111-194c62-3 86 47 72 106H45c-7 38 6 69 45 68 27-1 43-14 53-32l24 11C152-15 129 4 87 4 38 3 12-23 12-71c0-70 32-119 99-123zm44 81c14-66-71-72-95-28-4 8-8 17-11 28h106" id="at"/><path fill="#1d262b" d="M66-151c12-25 30-51 66-40l-6 26C45-176 58-65 38 0H6l36-190h30" id="au"/><g id="g"><use transform="matrix(0.05,0,0,0.05,0,0)" xlink:href="#ar"/><use transform="matrix(0.05,0,0,0.05,12.950000000000001,0)" xlink:href="#as"/><use transform="matrix(0.05,0,0,0.05,21.950000000000003,0)" xlink:href="#at"/><use transform="matrix(0.05,0,0,0.05,31.950000000000003,0)" xlink:href="#au"/></g><path fill="#1d262b" d="M67 3c-93-2-31-127-26-193h32L48-50c-3 39 53 32 70 12 30-34 30-101 43-152h32L157 0h-30c1-10 6-24 4-33-14 20-29 37-64 36" id="av"/><path fill="#1d262b" d="M14 0l48-248h34L48 0H14" id="aw"/><path fill="#1d262b" d="M133-28C103 26-5 8 13-77c13-62 24-115 90-117 29-1 46 15 56 35l19-102h32L160 0h-30zM45-64c-2 27 10 43 35 43 54-1 69-50 69-103 0-29-15-46-42-46-53-1-58 58-62 106" id="ax"/><g id="h"><use transform="matrix(0.05,0,0,0.05,0,0)" xlink:href="#av"/><use transform="matrix(0.05,0,0,0.05,10,0)" xlink:href="#as"/><use transform="matrix(0.05,0,0,0.05,19,0)" xlink:href="#at"/><use transform="matrix(0.05,0,0,0.05,29,0)" xlink:href="#au"/><use transform="matrix(0.05,0,0,0.05,34.95,0)" xlink:href="#aw"/><use transform="matrix(0.05,0,0,0.05,39.95,0)" xlink:href="#ax"/></g><path fill="#1d262b" d="M17-49c1-102 45-165 103-212h30C92-210 49-145 49-46 49 4 63 43 85 75H54C30 43 18 2 17-49" id="ay"/><path fill="#1d262b" d="M238-179c0 84-86 86-175 82L45 0H11l48-248c82 0 179-12 179 69zm-34 1c0-53-64-42-116-43l-19 98c63 0 135 9 135-55" id="az"/><path fill="#1d262b" d="M180 0L97-118 63-96 45 0H11l48-248h34L69-126c44-43 94-81 141-122h43L121-137 219 0h-39" id="aA"/><path fill="#1d262b" d="M98-137C97-35 54 29-4 75h-31C23 23 67-41 67-140c0-50-15-89-37-121h31c24 32 36 73 37 124" id="aB"/><g id="i"><use transform="matrix(0.05,0,0,0.05,0,0)" xlink:href="#ay"/><use transform="matrix(0.05,0,0,0.05,5.95,0)" xlink:href="#az"/><use transform="matrix(0.05,0,0,0.05,17.95,0)" xlink:href="#aA"/><use transform="matrix(0.05,0,0,0.05,29.950000000000003,0)" xlink:href="#aB"/></g><path fill="#1d262b" d="M50-231l6-30h32l-6 30H50zM6 0l37-190h31L37 0H6" id="aC"/><path fill="#1d262b" d="M67-158c22-48 132-52 116 29L158 0h-32l25-140c3-38-53-32-70-12C52-117 51-52 38 0H6l36-190h30" id="aD"/><path fill="#1d262b" d="M51-54c-9 22 5 41 31 30L79-1C43 14 10-4 19-52l22-115H19l5-23h22l19-43h21l-9 43h35l-4 23H73" id="aE"/><g id="j"><use transform="matrix(0.05,0,0,0.05,0,0)" xlink:href="#aC"/><use transform="matrix(0.05,0,0,0.05,3.95,0)" xlink:href="#aD"/><use transform="matrix(0.05,0,0,0.05,13.949999999999998,0)" xlink:href="#aE"/></g><path fill="#1d262b" d="M76-167L44 0H12l33-167H18l4-23h27c3-47 25-81 82-69l-4 24c-35-8-44 15-46 45h37l-5 23H76" id="aF"/><path fill="#1d262b" d="M165-48c-4 18 1 34 23 27l-3 20c-29 8-62 0-52-35h-2C116-14 99 4 63 4 30 4 8-16 8-49c0-68 71-67 138-67 10-26 0-56-31-54-26 1-42 9-47 31l-32-5c8-67 160-71 144 15-5 28-9 54-15 81zM42-50c3 52 80 24 89-6 7-12 7-24 11-38-47 1-103-4-100 44" id="aG"/><path fill="#1d262b" d="M248-111c6-24 9-61-24-58-72 9-57 108-77 169h-31l26-142c3-37-50-30-64-10C52-115 50-51 37 0H6l36-190h30c-1 10-6 24-4 32 13-43 101-52 105 5 13-22 29-41 61-41 90 0 28 129 23 194h-31" id="aH"/><g id="k"><use transform="matrix(0.05,0,0,0.05,0,0)" xlink:href="#aF"/><use transform="matrix(0.05,0,0,0.05,5,0)" xlink:href="#aC"/><use transform="matrix(0.05,0,0,0.05,8.95,0)" xlink:href="#au"/><use transform="matrix(0.05,0,0,0.05,14.899999999999999,0)" xlink:href="#as"/><use transform="matrix(0.05,0,0,0.05,23.9,0)" xlink:href="#aE"/><use transform="matrix(0.05,0,0,0.05,28.899999999999995,0)" xlink:href="#aD"/><use transform="matrix(0.05,0,0,0.05,38.9,0)" xlink:href="#aG"/><use transform="matrix(0.05,0,0,0.05,48.9,0)" xlink:href="#aH"/><use transform="matrix(0.05,0,0,0.05,63.85,0)" xlink:href="#at"/></g><path fill="#1d262b" d="M103-194c29 0 47 14 56 36 2-11 5-23 8-32h30L160-5C157 61 82 97 21 62 9 55 4 45 1 30l28-7c7 42 83 31 92-3 4-16 9-38 13-55-13 20-29 36-62 36-40 0-60-25-60-64 0-71 23-131 91-131zm4 24c-53 0-58 54-61 104-2 27 10 44 36 44 49 0 65-50 67-102 1-29-15-46-42-46" id="aI"/><g id="l"><use transform="matrix(0.05,0,0,0.05,0,0)" xlink:href="#as"/><use transform="matrix(0.05,0,0,0.05,9,0)" xlink:href="#aE"/><use transform="matrix(0.05,0,0,0.05,14,0)" xlink:href="#au"/><use transform="matrix(0.05,0,0,0.05,19.95,0)" xlink:href="#aC"/><use transform="matrix(0.05,0,0,0.05,23.9,0)" xlink:href="#aD"/><use transform="matrix(0.05,0,0,0.05,33.9,0)" xlink:href="#aI"/></g><path fill="#1d262b" d="M6 0l50-261h32L37 0H6" id="aJ"/><g id="m"><use transform="matrix(0.05,0,0,0.05,0,0)" xlink:href="#aJ"/><use transform="matrix(0.05,0,0,0.05,3.95,0)" xlink:href="#aG"/><use transform="matrix(0.05,0,0,0.05,13.949999999999998,0)" xlink:href="#as"/><use transform="matrix(0.05,0,0,0.05,22.95,0)" xlink:href="#aE"/><use transform="matrix(0.05,0,0,0.05,27.950000000000003,0)" xlink:href="#aD"/><use transform="matrix(0.05,0,0,0.05,37.95,0)" xlink:href="#aG"/><use transform="matrix(0.05,0,0,0.05,47.95,0)" xlink:href="#aH"/><use transform="matrix(0.05,0,0,0.05,62.900000000000006,0)" xlink:href="#at"/></g><g id="n"><use transform="matrix(0.05,0,0,0.05,0,0)" xlink:href="#at"/><use transform="matrix(0.05,0,0,0.05,10,0)" xlink:href="#aH"/><use transform="matrix(0.05,0,0,0.05,24.950000000000003,0)" xlink:href="#aG"/><use transform="matrix(0.05,0,0,0.05,34.95,0)" xlink:href="#aC"/><use transform="matrix(0.05,0,0,0.05,38.900000000000006,0)" xlink:href="#aJ"/></g><path fill="#1d262b" d="M198-190L69 30C53 58 25 83-20 72c4-11-1-27 19-22 33-1 43-29 59-52L20-190h32L79-34l84-156h35" id="aK"/><path fill="#1d262b" d="M67-162c32-53 139-36 121 50C175-51 163 2 97 4 68 4 52-11 42-31 38 6 28 39 22 75H-9l50-265h29c-1 10 0 20-3 28zm89 36c0-26-10-43-35-43-54 0-67 50-69 103-1 29 14 45 42 46 53 0 62-58 62-106" id="aL"/><g id="o"><use transform="matrix(0.05,0,0,0.05,0,0)" xlink:href="#aE"/><use transform="matrix(0.05,0,0,0.05,5,0)" xlink:href="#aK"/><use transform="matrix(0.05,0,0,0.05,14,0)" xlink:href="#aL"/><use transform="matrix(0.05,0,0,0.05,24,0)" xlink:href="#at"/></g><g id="p"><use transform="matrix(0.05,0,0,0.05,0,0)" xlink:href="#at"/><use transform="matrix(0.05,0,0,0.05,10,0)" xlink:href="#aD"/><use transform="matrix(0.05,0,0,0.05,20,0)" xlink:href="#av"/><use transform="matrix(0.05,0,0,0.05,30,0)" xlink:href="#aH"/></g><path fill="#1d262b" d="M30-147c31-64 166-65 159 27C183-49 158 1 86 4 9 8 1-88 30-147zM88-20c53 0 68-48 68-100 0-31-11-51-44-50-52 1-68 46-68 97 0 32 13 53 44 53" id="aM"/><path fill="#1d262b" d="M51-231l6-30h31l-6 30H51zM33 24C28 60 2 84-40 72c3-12-1-29 18-22C-5 49-1 37 2 19l41-209h32" id="aN"/><path fill="#1d262b" d="M44-68c0 29 11 47 38 47 30 0 42-19 51-41l28 9C148-21 126 4 82 4 31 4 10-29 12-85c3-77 74-140 146-93 12 8 15 23 18 40l-31 5c-1-22-13-36-36-36-52 0-65 49-65 101" id="aO"/><g id="q"><use transform="matrix(0.05,0,0,0.05,0,0)" xlink:href="#aL"/><use transform="matrix(0.05,0,0,0.05,10,0)" xlink:href="#au"/><use transform="matrix(0.05,0,0,0.05,15.949999999999998,0)" xlink:href="#aM"/><use transform="matrix(0.05,0,0,0.05,25.950000000000003,0)" xlink:href="#aN"/><use transform="matrix(0.05,0,0,0.05,29.899999999999995,0)" xlink:href="#at"/><use transform="matrix(0.05,0,0,0.05,39.9,0)" xlink:href="#aO"/><use transform="matrix(0.05,0,0,0.05,48.9,0)" xlink:href="#aE"/><use transform="matrix(0.05,0,0,0.05,53.900000000000006,0)" xlink:href="#as"/></g><path fill="#1d262b" d="M11 0l48-248h34L50-27h125l-5 27H11" id="aP"/><path fill="#1d262b" d="M23-100v-36l175-74v27L47-118l151 64v27" id="aQ"/><path fill="#1d262b" d="M23-27v-27l151-64-151-65v-27l175 74v36" id="aR"/><g id="r"><use transform="matrix(0.05,0,0,0.05,0,0)" xlink:href="#aP"/><use transform="matrix(0.05,0,0,0.05,10,0)" xlink:href="#aC"/><use transform="matrix(0.05,0,0,0.05,13.949999999999998,0)" xlink:href="#as"/><use transform="matrix(0.05,0,0,0.05,22.95,0)" xlink:href="#aE"/><use transform="matrix(0.05,0,0,0.05,27.950000000000003,0)" xlink:href="#aQ"/><use transform="matrix(0.05,0,0,0.05,38.45,0)" xlink:href="#az"/><use transform="matrix(0.05,0,0,0.05,50.45,0)" xlink:href="#au"/><use transform="matrix(0.05,0,0,0.05,56.400000000000006,0)" xlink:href="#aM"/><use transform="matrix(0.05,0,0,0.05,66.4,0)" xlink:href="#aN"/><use transform="matrix(0.05,0,0,0.05,70.35000000000001,0)" xlink:href="#at"/><use transform="matrix(0.05,0,0,0.05,80.35000000000001,0)" xlink:href="#aO"/><use transform="matrix(0.05,0,0,0.05,89.35000000000001,0)" xlink:href="#aE"/><use transform="matrix(0.05,0,0,0.05,94.35000000000001,0)" xlink:href="#aR"/></g><g id="s"><use transform="matrix(0.05,0,0,0.05,0,0)" xlink:href="#au"/><use transform="matrix(0.05,0,0,0.05,5.95,0)" xlink:href="#at"/><use transform="matrix(0.05,0,0,0.05,15.949999999999998,0)" xlink:href="#aI"/><use transform="matrix(0.05,0,0,0.05,25.950000000000003,0)" xlink:href="#aC"/><use transform="matrix(0.05,0,0,0.05,29.899999999999995,0)" xlink:href="#as"/><use transform="matrix(0.05,0,0,0.05,38.9,0)" xlink:href="#aE"/><use transform="matrix(0.05,0,0,0.05,43.9,0)" xlink:href="#au"/><use transform="matrix(0.05,0,0,0.05,49.85,0)" xlink:href="#aG"/><use transform="matrix(0.05,0,0,0.05,59.85,0)" xlink:href="#aE"/><use transform="matrix(0.05,0,0,0.05,64.85,0)" xlink:href="#aC"/><use transform="matrix(0.05,0,0,0.05,68.8,0)" xlink:href="#aM"/><use transform="matrix(0.05,0,0,0.05,78.8,0)" xlink:href="#aD"/><use transform="matrix(0.05,0,0,0.05,88.8,0)" xlink:href="#as"/></g><path fill="#1d262b" d="M151-220L108 0H75l42-220H32l6-28h203l-5 28h-85" id="aS"/><path fill="#1d262b" d="M249-183c0 48-29 72-75 77L221 0h-36l-43-103H65L45 0H11l48-248c83 2 190-17 190 65zm-34 3c0-55-74-39-127-41l-18 92c63-1 145 13 145-51" id="aT"/><g id="t"><use transform="matrix(0.05,0,0,0.05,0,0)" xlink:href="#aP"/><use transform="matrix(0.05,0,0,0.05,10,0)" xlink:href="#aC"/><use transform="matrix(0.05,0,0,0.05,13.949999999999998,0)" xlink:href="#as"/><use transform="matrix(0.05,0,0,0.05,22.95,0)" xlink:href="#aE"/><use transform="matrix(0.05,0,0,0.05,27.950000000000003,0)" xlink:href="#aQ"/><use transform="matrix(0.05,0,0,0.05,38.45,0)" xlink:href="#aS"/><use transform="matrix(0.05,0,0,0.05,49.25000000000001,0)" xlink:href="#aC"/><use transform="matrix(0.05,0,0,0.05,53.20000000000002,0)" xlink:href="#aH"/><use transform="matrix(0.05,0,0,0.05,68.15,0)" xlink:href="#at"/><use transform="matrix(0.05,0,0,0.05,78.15,0)" xlink:href="#aT"/><use transform="matrix(0.05,0,0,0.05,91.10000000000001,0)" xlink:href="#at"/><use transform="matrix(0.05,0,0,0.05,101.10000000000001,0)" xlink:href="#aI"/><use transform="matrix(0.05,0,0,0.05,111.10000000000001,0)" xlink:href="#aC"/><use transform="matrix(0.05,0,0,0.05,115.05000000000001,0)" xlink:href="#as"/><use transform="matrix(0.05,0,0,0.05,124.05000000000001,0)" xlink:href="#aE"/><use transform="matrix(0.05,0,0,0.05,129.05,0)" xlink:href="#au"/><use transform="matrix(0.05,0,0,0.05,135,0)" xlink:href="#aG"/><use transform="matrix(0.05,0,0,0.05,145,0)" xlink:href="#aE"/><use transform="matrix(0.05,0,0,0.05,150,0)" xlink:href="#aC"/><use transform="matrix(0.05,0,0,0.05,153.95,0)" xlink:href="#aM"/><use transform="matrix(0.05,0,0,0.05,163.95,0)" xlink:href="#aD"/><use transform="matrix(0.05,0,0,0.05,173.95,0)" xlink:href="#aR"/></g><path fill="#333" d="M238-179c0 84-86 86-175 82L45 0H11l48-248c82 0 179-12 179 69zm-34 1c0-53-64-42-116-43l-19 98c63 0 135 9 135-55" id="aU"/><path fill="#333" d="M66-151c12-25 30-51 66-40l-6 26C45-176 58-65 38 0H6l36-190h30" id="aV"/><path fill="#333" d="M30-147c31-64 166-65 159 27C183-49 158 1 86 4 9 8 1-88 30-147zM88-20c53 0 68-48 68-100 0-31-11-51-44-50-52 1-68 46-68 97 0 32 13 53 44 53" id="aW"/><path fill="#333" d="M51-231l6-30h31l-6 30H51zM33 24C28 60 2 84-40 72c3-12-1-29 18-22C-5 49-1 37 2 19l41-209h32" id="aX"/><path fill="#333" d="M111-194c62-3 86 47 72 106H45c-7 38 6 69 45 68 27-1 43-14 53-32l24 11C152-15 129 4 87 4 38 3 12-23 12-71c0-70 32-119 99-123zm44 81c14-66-71-72-95-28-4 8-8 17-11 28h106" id="aY"/><path fill="#333" d="M44-68c0 29 11 47 38 47 30 0 42-19 51-41l28 9C148-21 126 4 82 4 31 4 10-29 12-85c3-77 74-140 146-93 12 8 15 23 18 40l-31 5c-1-22-13-36-36-36-52 0-65 49-65 101" id="aZ"/><path fill="#333" d="M51-54c-9 22 5 41 31 30L79-1C43 14 10-4 19-52l22-115H19l5-23h22l19-43h21l-9 43h35l-4 23H73" id="ba"/><g id="u"><use transform="matrix(0.05,0,0,0.05,0,0)" xlink:href="#aU"/><use transform="matrix(0.05,0,0,0.05,12,0)" xlink:href="#aV"/><use transform="matrix(0.05,0,0,0.05,17.95,0)" xlink:href="#aW"/><use transform="matrix(0.05,0,0,0.05,27.950000000000003,0)" xlink:href="#aX"/><use transform="matrix(0.05,0,0,0.05,31.899999999999995,0)" xlink:href="#aY"/><use transform="matrix(0.05,0,0,0.05,41.9,0)" xlink:href="#aZ"/><use transform="matrix(0.05,0,0,0.05,50.9,0)" xlink:href="#ba"/></g><g id="v"><use transform="matrix(0.05,0,0,0.05,0,0)" xlink:href="#aL"/><use transform="matrix(0.05,0,0,0.05,10,0)" xlink:href="#au"/><use transform="matrix(0.05,0,0,0.05,15.949999999999998,0)" xlink:href="#aM"/><use transform="matrix(0.05,0,0,0.05,25.950000000000003,0)" xlink:href="#aN"/><use transform="matrix(0.05,0,0,0.05,29.899999999999995,0)" xlink:href="#at"/><use transform="matrix(0.05,0,0,0.05,39.9,0)" xlink:href="#aO"/><use transform="matrix(0.05,0,0,0.05,48.9,0)" xlink:href="#aE"/><use transform="matrix(0.05,0,0,0.05,53.900000000000006,0)" xlink:href="#aw"/><use transform="matrix(0.05,0,0,0.05,58.900000000000006,0)" xlink:href="#ax"/></g><g id="w"><use transform="matrix(0.05,0,0,0.05,0,0)" xlink:href="#aD"/><use transform="matrix(0.05,0,0,0.05,10,0)" xlink:href="#aG"/><use transform="matrix(0.05,0,0,0.05,20,0)" xlink:href="#aH"/><use transform="matrix(0.05,0,0,0.05,34.95,0)" xlink:href="#at"/></g><g id="x"><use transform="matrix(0.05,0,0,0.05,0,0)" xlink:href="#as"/><use transform="matrix(0.05,0,0,0.05,9,0)" xlink:href="#aE"/><use transform="matrix(0.05,0,0,0.05,14,0)" xlink:href="#aG"/><use transform="matrix(0.05,0,0,0.05,24,0)" xlink:href="#aE"/><use transform="matrix(0.05,0,0,0.05,29,0)" xlink:href="#av"/><use transform="matrix(0.05,0,0,0.05,39,0)" xlink:href="#as"/></g><g id="y"><use transform="matrix(0.05,0,0,0.05,0,0)" xlink:href="#ax"/><use transform="matrix(0.05,0,0,0.05,10,0)" xlink:href="#at"/><use transform="matrix(0.05,0,0,0.05,20,0)" xlink:href="#as"/><use transform="matrix(0.05,0,0,0.05,29,0)" xlink:href="#aO"/><use transform="matrix(0.05,0,0,0.05,38,0)" xlink:href="#au"/><use transform="matrix(0.05,0,0,0.05,43.95,0)" xlink:href="#aC"/><use transform="matrix(0.05,0,0,0.05,47.900000000000006,0)" xlink:href="#aL"/><use transform="matrix(0.05,0,0,0.05,57.900000000000006,0)" xlink:href="#aE"/><use transform="matrix(0.05,0,0,0.05,62.900000000000006,0)" xlink:href="#aC"/><use transform="matrix(0.05,0,0,0.05,66.85000000000001,0)" xlink:href="#aM"/><use transform="matrix(0.05,0,0,0.05,76.85000000000001,0)" xlink:href="#aD"/></g><g id="z"><use transform="matrix(0.05,0,0,0.05,0,0)" xlink:href="#av"/><use transform="matrix(0.05,0,0,0.05,10,0)" xlink:href="#as"/><use transform="matrix(0.05,0,0,0.05,19,0)" xlink:href="#at"/><use transform="matrix(0.05,0,0,0.05,29,0)" xlink:href="#au"/></g><g id="A"><use transform="matrix(0.05,0,0,0.05,0,0)" xlink:href="#aS"/><use transform="matrix(0.05,0,0,0.05,10.8,0)" xlink:href="#aC"/><use transform="matrix(0.05,0,0,0.05,14.75,0)" xlink:href="#aH"/><use transform="matrix(0.05,0,0,0.05,29.700000000000003,0)" xlink:href="#at"/><use transform="matrix(0.05,0,0,0.05,39.7,0)" xlink:href="#aT"/><use transform="matrix(0.05,0,0,0.05,52.650000000000006,0)" xlink:href="#at"/><use transform="matrix(0.05,0,0,0.05,62.650000000000006,0)" xlink:href="#aI"/><use transform="matrix(0.05,0,0,0.05,72.65,0)" xlink:href="#aC"/><use transform="matrix(0.05,0,0,0.05,76.60000000000001,0)" xlink:href="#as"/><use transform="matrix(0.05,0,0,0.05,85.60000000000001,0)" xlink:href="#aE"/><use transform="matrix(0.05,0,0,0.05,90.60000000000001,0)" xlink:href="#au"/><use transform="matrix(0.05,0,0,0.05,96.55000000000001,0)" xlink:href="#aG"/><use transform="matrix(0.05,0,0,0.05,106.55000000000001,0)" xlink:href="#aE"/><use transform="matrix(0.05,0,0,0.05,111.55000000000001,0)" xlink:href="#aC"/><use transform="matrix(0.05,0,0,0.05,115.5,0)" xlink:href="#aM"/><use transform="matrix(0.05,0,0,0.05,125.5,0)" xlink:href="#aD"/></g><g id="B"><use transform="matrix(0.05,0,0,0.05,0,0)" xlink:href="#au"/><use transform="matrix(0.05,0,0,0.05,5.95,0)" xlink:href="#at"/><use transform="matrix(0.05,0,0,0.05,15.949999999999998,0)" xlink:href="#aI"/><use transform="matrix(0.05,0,0,0.05,25.950000000000003,0)" xlink:href="#aC"/><use transform="matrix(0.05,0,0,0.05,29.899999999999995,0)" xlink:href="#as"/><use transform="matrix(0.05,0,0,0.05,38.9,0)" xlink:href="#aE"/><use transform="matrix(0.05,0,0,0.05,43.9,0)" xlink:href="#au"/><use transform="matrix(0.05,0,0,0.05,49.85,0)" xlink:href="#aG"/><use transform="matrix(0.05,0,0,0.05,59.85,0)" xlink:href="#aE"/><use transform="matrix(0.05,0,0,0.05,64.85,0)" xlink:href="#aC"/><use transform="matrix(0.05,0,0,0.05,68.8,0)" xlink:href="#aM"/><use transform="matrix(0.05,0,0,0.05,78.8,0)" xlink:href="#aD"/><use transform="matrix(0.05,0,0,0.05,88.8,0)" xlink:href="#aw"/><use transform="matrix(0.05,0,0,0.05,93.8,0)" xlink:href="#ax"/></g><path fill="#1d262b" d="M87-220l-18 92h140l-5 28H64L45 0H11l48-248h178l-5 28H87" id="bb"/><g id="C"><use transform="matrix(0.05,0,0,0.05,0,0)" xlink:href="#ay"/><use transform="matrix(0.05,0,0,0.05,5.95,0)" xlink:href="#bb"/><use transform="matrix(0.05,0,0,0.05,16.900000000000002,0)" xlink:href="#aA"/><use transform="matrix(0.05,0,0,0.05,28.900000000000002,0)" xlink:href="#aB"/></g><g id="D"><use transform="matrix(0.05,0,0,0.05,0,0)" xlink:href="#aE"/><use transform="matrix(0.05,0,0,0.05,5,0)" xlink:href="#aC"/><use transform="matrix(0.05,0,0,0.05,8.95,0)" xlink:href="#aH"/><use transform="matrix(0.05,0,0,0.05,23.9,0)" xlink:href="#at"/><use transform="matrix(0.05,0,0,0.05,33.9,0)" xlink:href="#au"/></g><g id="E"><use transform="matrix(0.05,0,0,0.05,0,0)" xlink:href="#aS"/><use transform="matrix(0.05,0,0,0.05,10.8,0)" xlink:href="#aC"/><use transform="matrix(0.05,0,0,0.05,14.75,0)" xlink:href="#aH"/><use transform="matrix(0.05,0,0,0.05,29.700000000000003,0)" xlink:href="#at"/><use transform="matrix(0.05,0,0,0.05,39.7,0)" xlink:href="#au"/></g><path fill="#1d262b" d="M127 0L80-88 50-66 37 0H6l51-261h31L57-100l99-90h39l-93 82L161 0h-34" id="bc"/><g id="F"><use transform="matrix(0.05,0,0,0.05,0,0)" xlink:href="#aE"/><use transform="matrix(0.05,0,0,0.05,5,0)" xlink:href="#aG"/><use transform="matrix(0.05,0,0,0.05,15,0)" xlink:href="#as"/><use transform="matrix(0.05,0,0,0.05,24,0)" xlink:href="#bc"/></g><g id="G"><use transform="matrix(0.05,0,0,0.05,0,0)" xlink:href="#aS"/><use transform="matrix(0.05,0,0,0.05,9.3,0)" xlink:href="#aG"/><use transform="matrix(0.05,0,0,0.05,19.3,0)" xlink:href="#as"/><use transform="matrix(0.05,0,0,0.05,28.3,0)" xlink:href="#bc"/></g><path d="M24-248c120-7 223 5 221 122C244-46 201 0 124 0H24v-248zM76-40c74 7 117-18 117-86 0-67-45-88-117-82v168" id="bd"/><path d="M25-224v-37h50v37H25zM25 0v-190h50V0H25" id="be"/><path d="M133-34C117-15 103 5 69 4 32 3 11-16 11-54c-1-60 55-63 116-61 1-26-3-47-28-47-18 1-26 9-28 27l-52-2c7-38 36-58 82-57s74 22 75 68l1 82c-1 14 12 18 25 15v27c-30 8-71 5-69-32zm-48 3c29 0 43-24 42-57-32 0-66-3-65 30 0 17 8 27 23 27" id="bf"/><path d="M195-6C206 82 75 100 31 46c-4-6-6-13-8-21l49-6c3 16 16 24 34 25 40 0 42-37 40-79-11 22-30 35-61 35-53 0-70-43-70-97 0-56 18-96 73-97 30 0 46 14 59 34l2-30h47zm-90-29c32 0 41-27 41-63 0-35-9-62-40-62-32 0-39 29-40 63 0 36 9 62 39 62" id="bg"/><path d="M135-150c-39-12-60 13-60 57V0H25l-1-190h47c2 13-1 29 3 40 6-28 27-53 61-41v41" id="bh"/><path d="M220-157c-53 9-28 100-34 157h-49v-107c1-27-5-49-29-50C55-147 81-57 75 0H25l-1-190h47c2 12-1 28 3 38 10-53 101-56 108 0 13-22 24-43 59-42 82 1 51 116 57 194h-49v-107c-1-25-5-48-29-50" id="bi"/><g id="H"><use transform="matrix(0.05,0,0,0.05,0,0)" xlink:href="#bd"/><use transform="matrix(0.05,0,0,0.05,12.950000000000001,0)" xlink:href="#be"/><use transform="matrix(0.05,0,0,0.05,17.950000000000003,0)" xlink:href="#bf"/><use transform="matrix(0.05,0,0,0.05,27.950000000000003,0)" xlink:href="#bg"/><use transform="matrix(0.05,0,0,0.05,38.900000000000006,0)" xlink:href="#bh"/><use transform="matrix(0.05,0,0,0.05,45.900000000000006,0)" xlink:href="#bf"/><use transform="matrix(0.05,0,0,0.05,55.900000000000006,0)" xlink:href="#bi"/></g><path d="M195 0l-88-114-31 24V0H24v-248h52v113l112-113h60L142-143 257 0h-62" id="bj"/><path d="M185-48c-13 30-37 53-82 52C43 2 14-33 14-96s30-98 90-98c62 0 83 45 84 108H66c0 31 8 55 39 56 18 0 30-7 34-22zm-45-69c5-46-57-63-70-21-2 6-4 13-4 21h74" id="bk"/><path d="M123 10C108 53 80 86 19 72V37c35 8 53-11 59-39L3-190h52l48 148c12-52 28-100 44-148h51" id="bl"/><g id="I"><use transform="matrix(0.05,0,0,0.05,0,0)" xlink:href="#bj"/><use transform="matrix(0.05,0,0,0.05,12.950000000000001,0)" xlink:href="#bk"/><use transform="matrix(0.05,0,0,0.05,22.950000000000003,0)" xlink:href="#bl"/></g><path d="M30 0v-248h187v28H63v79h144v27H63v87h162V0H30" id="bm"/><path d="M141 0L90-78 38 0H4l68-98-65-92h35l48 74 47-74h35l-64 92 68 98h-35" id="bn"/><path d="M24-231v-30h32v30H24zM24 0v-190h32V0H24" id="bo"/><path d="M135-143c-3-34-86-38-87 0 15 53 115 12 119 90S17 21 10-45l28-5c4 36 97 45 98 0-10-56-113-15-118-90-4-57 82-63 122-42 12 7 21 19 24 35" id="bp"/><path d="M59-47c-2 24 18 29 38 22v24C64 9 27 4 27-40v-127H5v-23h24l9-43h21v43h35v23H59v120" id="bq"/><path d="M117-194c89-4 53 116 60 194h-32v-121c0-31-8-49-39-48C34-167 62-67 57 0H25l-1-190h30c1 10-1 24 2 32 11-22 29-35 61-36" id="br"/><path d="M177-190C167-65 218 103 67 71c-23-6-38-20-44-43l32-5c15 47 100 32 89-28v-30C133-14 115 1 83 1 29 1 15-40 15-95c0-56 16-97 71-98 29-1 48 16 59 35 1-10 0-23 2-32h30zM94-22c36 0 50-32 50-73 0-42-14-75-50-75-39 0-46 34-46 75s6 73 46 73" id="bs"/><g id="J"><use transform="matrix(0.03888888888888889,0,0,0.03888888888888889,0,0)" xlink:href="#bm"/><use transform="matrix(0.03888888888888889,0,0,0.03888888888888889,9.333333333333334,0)" xlink:href="#bn"/><use transform="matrix(0.03888888888888889,0,0,0.03888888888888889,16.333333333333336,0)" xlink:href="#bo"/><use transform="matrix(0.03888888888888889,0,0,0.03888888888888889,19.40555555555556,0)" xlink:href="#bp"/><use transform="matrix(0.03888888888888889,0,0,0.03888888888888889,26.405555555555562,0)" xlink:href="#bq"/><use transform="matrix(0.03888888888888889,0,0,0.03888888888888889,30.294444444444448,0)" xlink:href="#bo"/><use transform="matrix(0.03888888888888889,0,0,0.03888888888888889,33.36666666666667,0)" xlink:href="#br"/><use transform="matrix(0.03888888888888889,0,0,0.03888888888888889,41.144444444444446,0)" xlink:href="#bs"/></g><path d="M141-36C126-15 110 5 73 4 37 3 15-17 15-53c-1-64 63-63 125-63 3-35-9-54-41-54-24 1-41 7-42 31l-33-3c5-37 33-52 76-52 45 0 72 20 72 64v82c-1 20 7 32 28 27v20c-31 9-61-2-59-35zM48-53c0 20 12 33 32 33 41-3 63-29 60-74-43 2-92-5-92 41" id="bt"/><path d="M115-194c53 0 69 39 70 98 0 66-23 100-70 100C84 3 66-7 56-30L54 0H23l1-261h32v101c10-23 28-34 59-34zm-8 174c40 0 45-34 45-75 0-40-5-75-45-74-42 0-51 32-51 76 0 43 10 73 51 73" id="bu"/><path d="M24 0v-261h32V0H24" id="bv"/><path d="M100-194c63 0 86 42 84 106H49c0 40 14 67 53 68 26 1 43-12 49-29l28 8c-11 28-37 45-77 45C44 4 14-33 15-96c1-61 26-98 85-98zm52 81c6-60-76-77-97-28-3 7-6 17-6 28h103" id="bw"/><g id="K"><use transform="matrix(0.03888888888888889,0,0,0.03888888888888889,0,0)" xlink:href="#bq"/><use transform="matrix(0.03888888888888889,0,0,0.03888888888888889,3.888888888888889,0)" xlink:href="#bt"/><use transform="matrix(0.03888888888888889,0,0,0.03888888888888889,11.666666666666666,0)" xlink:href="#bu"/><use transform="matrix(0.03888888888888889,0,0,0.03888888888888889,19.444444444444443,0)" xlink:href="#bv"/><use transform="matrix(0.03888888888888889,0,0,0.03888888888888889,22.516666666666666,0)" xlink:href="#bw"/></g><path d="M30-248c87 1 191-15 191 75 0 78-77 80-158 76V0H30v-248zm33 125c57 0 124 11 124-50 0-59-68-47-124-48v98" id="bx"/><path d="M114-163C36-179 61-72 57 0H25l-1-190h30c1 12-1 29 2 39 6-27 23-49 58-41v29" id="by"/><path d="M100-194c62-1 85 37 85 99 1 63-27 99-86 99S16-35 15-95c0-66 28-99 85-99zM99-20c44 1 53-31 53-75 0-43-8-75-51-75s-53 32-53 75 10 74 51 75" id="bz"/><path d="M115-194c55 1 70 41 70 98S169 2 115 4C84 4 66-9 55-30l1 105H24l-1-265h31l2 30c10-21 28-34 59-34zm-8 174c40 0 45-34 45-75s-6-73-45-74c-42 0-51 32-51 76 0 43 10 73 51 73" id="bA"/><path d="M85-194c31 0 48 13 60 33l-1-100h32l1 261h-30c-2-10 0-23-3-31C134-8 116 4 85 4 32 4 16-35 15-94c0-66 23-100 70-100zm9 24c-40 0-46 34-46 75 0 40 6 74 45 74 42 0 51-32 51-76 0-42-9-74-50-73" id="bB"/><g id="L"><use transform="matrix(0.03888888888888889,0,0,0.03888888888888889,0,0)" xlink:href="#bx"/><use transform="matrix(0.03888888888888889,0,0,0.03888888888888889,9.333333333333334,0)" xlink:href="#by"/><use transform="matrix(0.03888888888888889,0,0,0.03888888888888889,13.961111111111112,0)" xlink:href="#bz"/><use transform="matrix(0.03888888888888889,0,0,0.03888888888888889,21.73888888888889,0)" xlink:href="#bA"/><use transform="matrix(0.03888888888888889,0,0,0.03888888888888889,29.516666666666666,0)" xlink:href="#bz"/><use transform="matrix(0.03888888888888889,0,0,0.03888888888888889,37.294444444444444,0)" xlink:href="#bp"/><use transform="matrix(0.03888888888888889,0,0,0.03888888888888889,44.294444444444444,0)" xlink:href="#bw"/><use transform="matrix(0.03888888888888889,0,0,0.03888888888888889,52.07222222222222,0)" xlink:href="#bB"/></g><g id="M"><use transform="matrix(0.05,0,0,0.05,0,0)" xlink:href="#aE"/><use transform="matrix(0.05,0,0,0.05,5,0)" xlink:href="#aC"/><use transform="matrix(0.05,0,0,0.05,8.95,0)" xlink:href="#aH"/><use transform="matrix(0.05,0,0,0.05,23.9,0)" xlink:href="#at"/><use transform="matrix(0.05,0,0,0.05,33.9,0)" xlink:href="#au"/><use transform="matrix(0.05,0,0,0.05,39.85,0)" xlink:href="#aw"/><use transform="matrix(0.05,0,0,0.05,44.85,0)" xlink:href="#ax"/></g><g id="N"><use transform="matrix(0.05,0,0,0.05,0,0)" xlink:href="#ay"/><use transform="matrix(0.05,0,0,0.05,5.95,0)" xlink:href="#az"/><use transform="matrix(0.05,0,0,0.05,17.95,0)" xlink:href="#bc"/><use transform="matrix(0.05,0,0,0.05,26.950000000000003,0)" xlink:href="#aB"/></g><g id="O"><use transform="matrix(0.05,0,0,0.05,0,0)" xlink:href="#as"/><use transform="matrix(0.05,0,0,0.05,9,0)" xlink:href="#aE"/><use transform="matrix(0.05,0,0,0.05,14,0)" xlink:href="#aG"/><use transform="matrix(0.05,0,0,0.05,24,0)" xlink:href="#au"/><use transform="matrix(0.05,0,0,0.05,29.950000000000003,0)" xlink:href="#aE"/><use transform="matrix(0.05,0,0,0.05,34.95,0)" xlink:href="#aS"/><use transform="matrix(0.05,0,0,0.05,45.75000000000001,0)" xlink:href="#aC"/><use transform="matrix(0.05,0,0,0.05,49.70000000000001,0)" xlink:href="#aH"/><use transform="matrix(0.05,0,0,0.05,64.65,0)" xlink:href="#at"/></g><g id="P"><use transform="matrix(0.05,0,0,0.05,0,0)" xlink:href="#ax"/><use transform="matrix(0.05,0,0,0.05,10,0)" xlink:href="#aG"/><use transform="matrix(0.05,0,0,0.05,20,0)" xlink:href="#aE"/><use transform="matrix(0.05,0,0,0.05,25,0)" xlink:href="#at"/><use transform="matrix(0.05,0,0,0.05,35,0)" xlink:href="#aE"/><use transform="matrix(0.05,0,0,0.05,40,0)" xlink:href="#aC"/><use transform="matrix(0.05,0,0,0.05,43.95,0)" xlink:href="#aH"/><use transform="matrix(0.05,0,0,0.05,58.900000000000006,0)" xlink:href="#at"/></g><g id="Q"><use transform="matrix(0.05,0,0,0.05,0,0)" xlink:href="#at"/><use transform="matrix(0.05,0,0,0.05,10,0)" xlink:href="#aD"/><use transform="matrix(0.05,0,0,0.05,20,0)" xlink:href="#ax"/><use transform="matrix(0.05,0,0,0.05,30,0)" xlink:href="#aS"/><use transform="matrix(0.05,0,0,0.05,40.800000000000004,0)" xlink:href="#aC"/><use transform="matrix(0.05,0,0,0.05,44.75000000000001,0)" xlink:href="#aH"/><use transform="matrix(0.05,0,0,0.05,59.70000000000002,0)" xlink:href="#at"/></g><g id="R"><use transform="matrix(0.05,0,0,0.05,0,0)" xlink:href="#ax"/><use transform="matrix(0.05,0,0,0.05,10,0)" xlink:href="#av"/><use transform="matrix(0.05,0,0,0.05,20,0)" xlink:href="#au"/><use transform="matrix(0.05,0,0,0.05,25.950000000000003,0)" xlink:href="#aG"/><use transform="matrix(0.05,0,0,0.05,35.95,0)" xlink:href="#aE"/><use transform="matrix(0.05,0,0,0.05,40.95,0)" xlink:href="#aC"/><use transform="matrix(0.05,0,0,0.05,44.900000000000006,0)" xlink:href="#aM"/><use transform="matrix(0.05,0,0,0.05,54.900000000000006,0)" xlink:href="#aD"/></g><g id="S"><use transform="matrix(0.05,0,0,0.05,0,0)" xlink:href="#aE"/><use transform="matrix(0.05,0,0,0.05,5,0)" xlink:href="#aG"/><use transform="matrix(0.05,0,0,0.05,15,0)" xlink:href="#aI"/><use transform="matrix(0.05,0,0,0.05,25,0)" xlink:href="#as"/></g><g id="T"><use transform="matrix(0.05,0,0,0.05,0,0)" xlink:href="#au"/><use transform="matrix(0.05,0,0,0.05,5.95,0)" xlink:href="#at"/><use transform="matrix(0.05,0,0,0.05,15.949999999999998,0)" xlink:href="#aI"/><use transform="matrix(0.05,0,0,0.05,25.950000000000003,0)" xlink:href="#aC"/><use transform="matrix(0.05,0,0,0.05,29.899999999999995,0)" xlink:href="#as"/><use transform="matrix(0.05,0,0,0.05,38.9,0)" xlink:href="#aE"/><use transform="matrix(0.05,0,0,0.05,43.9,0)" xlink:href="#au"/><use transform="matrix(0.05,0,0,0.05,49.85,0)" xlink:href="#aG"/><use transform="matrix(0.05,0,0,0.05,59.85,0)" xlink:href="#aE"/><use transform="matrix(0.05,0,0,0.05,64.85,0)" xlink:href="#aC"/><use transform="matrix(0.05,0,0,0.05,68.8,0)" xlink:href="#aM"/><use transform="matrix(0.05,0,0,0.05,78.8,0)" xlink:href="#aD"/></g><g id="U"><use transform="matrix(0.05,0,0,0.05,0,0)" xlink:href="#aT"/><use transform="matrix(0.05,0,0,0.05,12.950000000000001,0)" xlink:href="#at"/><use transform="matrix(0.05,0,0,0.05,22.950000000000003,0)" xlink:href="#aI"/><use transform="matrix(0.05,0,0,0.05,32.95,0)" xlink:href="#aC"/><use transform="matrix(0.05,0,0,0.05,36.900000000000006,0)" xlink:href="#as"/><use transform="matrix(0.05,0,0,0.05,45.900000000000006,0)" xlink:href="#aE"/><use transform="matrix(0.05,0,0,0.05,50.900000000000006,0)" xlink:href="#au"/><use transform="matrix(0.05,0,0,0.05,56.85,0)" xlink:href="#aG"/><use transform="matrix(0.05,0,0,0.05,66.85000000000001,0)" xlink:href="#aE"/><use transform="matrix(0.05,0,0,0.05,71.85000000000001,0)" xlink:href="#aC"/><use transform="matrix(0.05,0,0,0.05,75.80000000000001,0)" xlink:href="#aM"/><use transform="matrix(0.05,0,0,0.05,85.80000000000001,0)" xlink:href="#aD"/></g></defs></g></svg>